<svg xmlns="http://www.w3.org/2000/svg" viewBox="0 0 128 128"><defs><linearGradient id="primaryGradient" x1="0%" y1="0%" x2="100%" y2="100%"><stop offset="0%" style="stop-color:#9F68FF"/><stop offset="50%" style="stop-color:#7C3AED"/><stop offset="100%" style="stop-color:#6D28D9"/></linearGradient><linearGradient id="secondaryGradient" x1="0%" y1="0%" x2="100%" y2="100%"><stop offset="0%" style="stop-color:#7C3AED"/><stop offset="100%" style="stop-color:#5B21B6"/></linearGradient><linearGradient id="glassGradient" x1="0%" y1="0%" x2="0%" y2="100%"><stop offset="0%" style="stop-color:white;stop-opacity:0.4"/><stop offset="100%" style="stop-color:white;stop-opacity:0.1"/></linearGradient><linearGradient id="greyGradient" x1="0%" y1="0%" x2="100%" y2="100%"><stop offset="0%" style="stop-color:#E5E7EB"/><stop offset="100%" style="stop-color:#9CA3AF"/></linearGradient><filter id="glow"><feGaussianBlur stdDeviation="1.5" result="coloredBlur"/><feMerge><feMergeNode in="coloredBlur"/><feMergeNode in="SourceGraphic"/></feMerge></filter></defs><circle cx="64" cy="64" r="60" fill="url(#primaryGradient)"/><circle cx="64" cy="64" r="52" stroke="white" stroke-width="1.5" fill="none" opacity="0.2"/><g transform="translate(36, 34)"><path d="M0 0 h40 l16 16 v44 h-56 v-60 Z" fill="white" filter="url(#glow)"/><path d="M40 0 l16 16 h-16 v-16 Z" fill="url(#secondaryGradient)"/><rect x="8" y="10" width="24" height="8" rx="2" fill="url(#greyGradient)" opacity="0.7"/><g stroke="#E5E7EB" stroke-width="2" opacity="0.6"><line x1="8" y1="28" x2="48" y2="28"/><line x1="8" y1="36" x2="48" y2="36"/><line x1="8" y1="44" x2="36" y2="44"/></g><circle cx="42" cy="44" r="3" fill="url(#primaryGradient)" opacity="0.4"/></g><path d="M64 4 a60 60 0 0 1 60 60 a60 60 0 0 1-60 60 a60 60 0 0 1-60-60 a60 60 0 0 1 60-60" fill="url(#glassGradient)"/></svg>